<?xml version="1.0" standalone="no"?>
<!DOCTYPE svg PUBLIC "-//W3C//DTD SVG 20010904//EN"
 "http://www.w3.org/TR/2001/REC-SVG-20010904/DTD/svg10.dtd">
<svg version="1.0" xmlns="http://www.w3.org/2000/svg"
 width="975.000000pt" height="975.000000pt" viewBox="0 0 975.000000 975.000000"
 preserveAspectRatio="xMidYMid meet">
<metadata>
Created by potrace 1.11, written by Peter Selinger 2001-2013
</metadata>
<g transform="translate(0.000000,975.000000) scale(0.100000,-0.100000)"
fill="#000000" stroke="none">
<path d="M4980 8939 c-328 -58 -534 -286 -584 -647 -13 -91 -14 -294 -2 -359
3 -18 9 -48 12 -65 3 -18 16 -67 30 -108 102 -305 355 -479 699 -482 158 -1
275 38 382 128 94 80 152 189 168 317 l7 47 -31 0 c-27 0 -31 -3 -31 -27 0
-88 -52 -195 -135 -278 -94 -94 -196 -136 -313 -129 -120 8 -201 54 -268 154
-89 133 -128 319 -128 620 0 116 9 264 18 310 3 13 8 42 11 63 19 121 82 260
149 326 85 83 217 102 330 47 97 -48 215 -198 251 -320 12 -41 13 -41 61 -41
l49 0 0 205 c1 113 -1 210 -3 217 -5 17 -57 8 -91 -16 -16 -12 -44 -39 -61
-61 l-31 -39 -45 35 c-51 38 -129 76 -195 95 -53 14 -187 19 -249 8z"/>
<path d="M8400 8934 c-112 -25 -171 -55 -235 -121 -83 -84 -115 -170 -117
-313 l-2 -90 -77 0 c-74 0 -77 -1 -81 -25 -3 -13 -3 -27 0 -30 3 -3 40 -5 83
-5 l77 0 -1 -485 0 -485 -37 -10 c-20 -5 -50 -13 -68 -16 -22 -5 -32 -12 -32
-25 0 -18 14 -19 320 -19 306 0 320 1 320 19 0 13 -10 20 -32 25 -18 3 -48 11
-68 16 l-35 10 0 485 0 485 182 0 183 0 0 30 0 30 -182 2 -183 3 2 128 c3 255
49 357 160 357 67 0 66 0 66 -184 -1 -126 2 -170 12 -180 16 -16 117 -14 157
2 89 36 120 160 65 255 -38 64 -118 118 -212 142 -51 13 -207 12 -265 -1z"/>
<path d="M5870 8912 c-5 -2 -10 -10 -10 -18 0 -8 23 -20 58 -29 31 -9 62 -18
68 -20 9 -3 12 -193 12 -734 l1 -731 -42 -10 c-78 -20 -92 -27 -95 -43 -3 -16
23 -17 317 -17 314 0 321 0 321 20 0 11 -7 21 -15 21 -8 1 -18 2 -22 4 -5 1
-25 5 -46 9 -20 5 -40 13 -44 19 -4 6 -7 318 -8 692 -1 719 -2 740 -48 783
-48 45 -91 54 -269 56 -92 0 -172 0 -178 -2z"/>
<path d="M980 8893 c0 -16 23 -28 88 -43 l52 -12 -2 -731 -3 -731 -65 -16
c-45 -11 -66 -21 -68 -33 -3 -16 38 -17 610 -17 l613 0 0 203 0 202 -34 3
c-27 3 -40 -3 -66 -28 -60 -58 -114 -192 -115 -282 0 -36 -2 -38 -32 -39 -149
-3 -450 -1 -455 5 -5 4 -8 1185 -4 1423 l1 42 54 12 c63 14 73 19 78 39 3 13
-40 15 -324 15 -256 1 -328 -2 -328 -12z"/>
<path d="M2790 8479 c-85 -9 -171 -37 -220 -72 -78 -54 -103 -98 -102 -178 1
-106 72 -170 182 -165 31 1 61 6 68 10 9 5 12 52 11 173 0 90 2 167 5 170 10
10 90 21 136 18 145 -7 215 -138 219 -407 1 -54 -2 -99 -6 -99 -15 -3 -48 -6
-123 -13 -41 -3 -91 -9 -110 -11 -48 -6 -181 -26 -205 -31 -11 -2 -44 -8 -73
-14 -116 -21 -125 -26 -149 -77 -36 -80 -46 -125 -46 -198 1 -150 96 -254 271
-295 69 -16 208 -16 258 0 79 26 156 86 205 160 l16 25 16 -30 c21 -42 64 -83
112 -108 34 -18 62 -22 192 -25 150 -4 152 -4 146 17 -3 12 -12 22 -19 22 -8
1 -17 2 -21 4 -5 1 -25 5 -46 9 -20 5 -40 12 -43 18 -3 5 -6 158 -7 341 0 357
-5 405 -52 498 -96 188 -336 289 -615 258z m300 -778 c0 -161 -1 -170 -25
-214 -46 -81 -109 -129 -170 -129 -130 0 -180 189 -116 436 5 21 13 42 18 47
4 4 46 11 93 15 47 3 86 7 87 8 1 0 26 2 57 3 l56 2 0 -168z"/>
<path d="M7105 8483 c-56 -10 -143 -37 -170 -52 -133 -72 -220 -182 -267 -341
-23 -76 -31 -256 -16 -340 54 -299 264 -469 583 -471 111 -1 146 4 208 28 129
51 212 137 242 255 16 58 13 68 -19 68 -19 0 -25 -9 -39 -59 -20 -71 -79 -150
-139 -185 -134 -78 -295 -62 -367 36 -31 41 -65 133 -75 198 -12 75 -17 200
-9 201 4 1 35 3 68 4 74 3 250 15 290 19 17 2 53 7 80 10 28 4 68 9 90 11 22
3 49 7 60 9 11 2 39 7 62 11 40 6 44 10 54 48 6 24 9 79 7 127 -15 255 -235
428 -545 427 -43 0 -87 -2 -98 -4z m155 -58 c46 -24 90 -113 105 -214 8 -54 8
-195 0 -241 -4 -19 -7 -41 -7 -47 -2 -20 -65 -30 -241 -38 l-89 -4 6 117 c9
185 27 282 68 369 32 67 95 91 158 58z"/>
<path d="M2848 6005 c-2 -2 -29 -6 -62 -10 -32 -3 -83 -15 -112 -26 -29 -11
-57 -20 -60 -19 -4 1 -10 -2 -13 -7 -3 -5 -22 -17 -42 -26 -40 -18 -179 -124
-179 -135 0 -4 -14 -21 -30 -39 -17 -18 -30 -35 -30 -39 0 -4 -6 -15 -14 -23
-18 -20 -56 -133 -62 -185 -6 -47 -11 -56 -29 -56 -8 0 -37 -13 -65 -30 -28
-16 -53 -30 -56 -30 -3 0 -30 -16 -60 -35 -30 -19 -59 -35 -64 -35 -6 0 -10
-4 -10 -8 0 -4 -13 -15 -29 -25 -39 -23 -150 -106 -183 -137 -15 -14 -42 -39
-60 -56 -37 -33 -94 -103 -121 -146 -16 -26 -16 -28 23 -85 33 -50 78 -99 159
-173 25 -23 209 -160 215 -160 3 0 32 -17 64 -37 32 -21 91 -54 130 -73 80
-39 77 -35 98 -150 24 -129 175 -297 337 -373 201 -96 432 -92 604 9 115 67
216 216 240 356 9 50 9 246 0 298 -19 108 -87 223 -165 279 -18 12 -32 29 -32
37 0 24 51 16 77 -12 33 -35 45 -21 48 55 2 44 -1 64 -12 73 -13 10 -19 8 -35
-12 -24 -30 -73 -36 -75 -9 -1 9 10 23 24 30 72 38 143 159 168 287 17 82 17
233 1 305 -24 106 -97 232 -170 293 -53 44 -142 94 -168 94 -10 0 -18 5 -18
11 0 5 -4 8 -8 5 -5 -3 -24 -1 -43 4 -33 9 -175 21 -181 15z m117 -290 c151
-34 226 -122 228 -267 1 -78 -8 -137 -24 -152 -5 -6 -9 -16 -9 -23 0 -15 -3
-19 -55 -79 -98 -115 -249 -105 -283 18 -6 21 -9 46 -7 55 2 10 4 21 4 25 1 3
13 20 27 37 34 40 29 74 -11 82 -54 10 -148 -71 -188 -161 -25 -59 -31 -170
-10 -230 16 -50 58 -100 82 -100 9 0 0 -12 -22 -31 -55 -46 -72 -89 -71 -189
0 -68 5 -95 23 -132 21 -44 121 -161 121 -142 0 4 5 3 12 -4 13 -13 57 -16 74
-4 22 15 24 42 3 60 -54 45 -58 129 -8 186 39 45 75 55 138 39 71 -19 133 -77
174 -163 27 -57 31 -76 31 -150 1 -150 -55 -227 -196 -272 -58 -18 -167 -26
-223 -16 -141 26 -281 227 -302 433 -3 33 -6 61 -7 61 0 1 -23 4 -51 8 -159
18 -359 120 -486 247 -27 27 -49 55 -49 63 0 18 109 118 175 161 92 60 214
114 287 129 96 19 118 23 123 18 3 -3 5 10 6 29 4 141 64 284 159 380 71 72
136 98 235 94 39 -1 84 -6 100 -10z"/>
<path d="M3498 5209 c-15 -8 -30 -45 -45 -109 -2 -8 -5 -58 -8 -110 -2 -52 -5
-97 -6 -100 -1 -3 -1 -8 0 -12 0 -4 3 -38 6 -75 3 -38 7 -75 9 -83 2 -8 7 -29
11 -47 9 -39 39 -73 65 -73 20 0 50 25 51 43 3 54 12 64 44 47 23 -12 29 -11
53 7 24 18 27 25 23 69 -7 77 -5 246 2 279 15 63 -38 116 -85 86 -24 -15 -27
-12 -34 24 -11 61 -42 80 -86 54z"/>
<path d="M3773 5067 c-6 -10 -5 -308 2 -315 3 -3 650 -6 1438 -6 l1432 -1 1
-75 c0 -41 -3 -80 -7 -85 -5 -7 -89 -10 -231 -9 -123 1 -225 -2 -228 -6 -11
-17 -2 -520 9 -534 9 -10 54 -13 202 -13 110 0 195 -5 200 -10 6 -6 9 -41 7
-79 l-3 -69 -190 -1 c-173 0 -192 1 -212 19 l-21 19 0 -196 c-1 -163 2 -196
14 -197 78 -5 262 -3 275 3 10 4 15 19 13 47 -1 27 4 45 15 55 16 14 25 15
117 7 7 -1 12 -20 12 -48 0 -27 0 -54 1 -60 1 -16 266 -19 276 -3 3 5 7 173 7
372 l1 363 -206 0 c-233 -1 -215 -8 -207 89 l5 61 203 0 c131 -1 202 3 203 10
1 5 2 46 3 90 l1 80 103 3 102 3 0 -93 0 -93 201 0 c110 0 204 -2 208 -5 8 -6
10 -139 2 -141 -3 -1 -96 -2 -206 -3 l-200 -1 -2 -355 c0 -195 1 -363 4 -372
4 -16 19 -18 143 -18 l138 0 -2 56 c-1 30 2 58 8 61 17 11 110 11 124 0 6 -5
12 -31 12 -58 0 -40 3 -49 18 -50 22 -1 275 -1 282 0 7 1 6 381 -1 381 -4 0
-11 -6 -17 -13 -8 -9 -62 -12 -209 -12 l-198 0 -1 68 c0 45 4 71 13 79 9 7 75
11 197 11 101 -1 190 3 197 8 11 7 14 60 15 277 l0 269 -230 -1 -231 -1 -3 86
-3 86 373 0 373 0 3 164 2 164 -2171 0 c-1194 0 -2173 -3 -2176 -8z"/>
<path d="M1130 2529 c0 -17 13 -24 59 -34 12 -3 31 -7 42 -10 12 -2 24 -7 28
-10 5 -6 10 -435 4 -435 -1 0 -24 13 -50 28 -156 91 -380 69 -529 -54 -72 -59
-143 -185 -165 -296 -15 -73 -19 -270 -8 -345 22 -157 99 -300 199 -374 178
-131 422 -104 547 60 39 51 53 61 53 38 0 -22 60 -86 108 -115 45 -26 54 -27
200 -30 145 -4 154 -3 150 15 -2 13 -20 22 -68 33 l-65 16 -5 705 -5 705 -27
41 c-45 68 -76 76 -285 78 -170 2 -183 1 -183 -16z m40 -494 c14 -7 41 -26 60
-42 l35 -28 0 -395 0 -395 -27 -45 c-52 -87 -108 -129 -174 -132 -113 -4 -165
147 -170 492 -4 355 39 518 147 556 38 13 91 9 129 -11z"/>
<path d="M4059 2545 c0 0 -2 -8 -4 -17 -3 -18 -1 -19 83 -38 l52 -12 -2 -731
-3 -731 -65 -16 c-43 -11 -65 -21 -65 -31 0 -11 31 -15 175 -19 96 -3 243 -4
326 -2 144 3 152 4 147 22 -4 14 -21 22 -58 31 -29 6 -59 15 -65 19 -15 9 -16
680 -2 689 8 5 213 6 243 2 3 -1 12 -20 19 -43 14 -49 55 -134 79 -163 10 -13
28 -20 49 -21 l32 0 0 258 0 258 -35 0 c-31 0 -38 -6 -65 -47 -16 -27 -40 -78
-52 -115 l-22 -68 -128 1 -128 0 0 37 c-1 52 -1 599 -1 644 l1 37 243 -2 242
-2 8 -68 c8 -77 56 -191 104 -246 23 -26 38 -35 66 -36 30 -2 37 2 38 16 4 69
3 382 -1 388 -3 5 -1194 11 -1211 6z"/>
<path d="M5887 2124 c-1 -1 -29 -4 -62 -8 -239 -25 -415 -179 -474 -416 -26
-105 -22 -297 9 -395 41 -130 107 -222 209 -289 108 -71 218 -99 381 -98 150
1 241 27 352 99 115 75 186 185 224 344 3 13 7 76 9 139 4 138 -12 226 -60
325 -77 158 -213 254 -415 292 -24 4 -169 10 -173 7z m121 -70 c15 -10 33 -25
40 -33 19 -23 60 -111 66 -141 2 -14 10 -45 16 -70 18 -68 21 -459 5 -545 -23
-117 -25 -124 -50 -178 -30 -66 -55 -94 -99 -112 -46 -20 -62 -19 -110 5 -50
24 -87 80 -115 175 -30 104 -32 123 -36 330 -6 297 29 468 114 549 49 47 115
55 169 20z"/>
<path d="M8910 2093 c-60 -20 -147 -72 -191 -116 -29 -29 -54 -47 -56 -41 -11
34 -69 94 -115 120 -51 28 -59 29 -200 32 -131 3 -148 2 -148 -12 0 -17 29
-32 75 -40 69 -13 63 37 63 -504 0 -268 -2 -495 -4 -504 -3 -10 -14 -18 -25
-18 -10 0 -39 -5 -63 -12 -35 -9 -45 -16 -42 -30 2 -18 15 -19 189 -19 488 1
447 -1 447 20 0 13 -10 20 -32 25 -18 3 -48 11 -68 16 l-37 10 0 417 c-1 393
1 420 18 450 44 72 166 153 232 153 l33 0 1 -156 c0 -85 3 -157 6 -160 3 -3
32 -7 66 -9 141 -8 221 101 181 247 -26 92 -101 136 -230 136 -47 0 -92 -3
-100 -5z"/>
<path d="M1880 2072 c0 -15 9 -22 33 -27 17 -4 48 -11 67 -16 l35 -8 -1 -373
c-1 -205 2 -392 7 -416 51 -246 376 -394 604 -276 61 32 77 46 126 107 l38 47
33 -49 c44 -68 129 -112 228 -119 l70 -4 2 543 3 543 65 16 c46 11 66 20 68
33 3 16 -17 17 -317 17 -307 0 -321 -1 -321 -19 0 -13 10 -20 32 -25 18 -3 48
-11 67 -16 l36 -9 0 -424 -1 -423 -26 -45 c-32 -54 -84 -108 -116 -120 -66
-25 -142 1 -180 62 -47 78 -51 117 -52 492 0 193 -5 370 -10 391 -11 49 -37
85 -81 111 -30 18 -56 20 -221 23 -182 3 -188 3 -188 -16z"/>
<path d="M6690 2072 c0 -15 12 -22 60 -32 33 -7 64 -18 67 -24 4 -6 8 -186 8
-401 1 -353 3 -394 20 -435 64 -159 235 -265 421 -263 122 2 230 56 299 150
32 44 45 52 45 28 0 -25 65 -89 120 -119 38 -21 70 -29 126 -33 l74 -6 0 541
0 541 43 11 c78 20 92 27 95 43 3 16 -23 17 -317 17 -305 0 -321 -1 -321 -18
0 -15 13 -22 58 -32 31 -7 62 -16 67 -20 7 -5 10 -158 10 -427 l0 -418 -27
-46 c-106 -181 -268 -173 -328 16 -16 54 -18 97 -19 420 -1 200 -6 376 -11
396 -14 50 -46 88 -93 109 -34 15 -71 19 -219 20 -169 1 -178 0 -178 -18z"/>
</g>
</svg>
